#Comment line ignore any data following # character 
#Hierarchical Translation and Rotation (.htr) file 
[Header]	
#Header keywords are followed by a single value 
FileType HTR		#Single word string
DataType HTRS		#Translation followed by rotation and scale data
FileVersion 1		#integer
NumSegments 84		#integer
NumFrames 2		#integer
DataFrameRate 30		#integer, data frame rate in this file
EulerRotationOrder ZYX
CalibrationUnits mm
RotationUnits Degrees
GlobalAxisofGravity Y
BoneLengthAxis Y
ScaleFactor 1.00
[SegmentNames&Hierarchy]
#CHILD	PARENT
MASTER GLOBAL
root MASTER
chest root
L_mid_tent01 root
R_mid_tent01 root
spine01 root
Bip01_Neck chest
L_humerus chest
R_humerus chest
weapon_bone chest
Bip01_Head Bip01_Neck
eye_left_bone Bip01_Head
eye_right_bone Bip01_Head
L_forearm L_humerus
L_front_hand L_forearm
L_weapon_bone L_forearm
L_front_hand01_01 L_front_hand
L_front_hand02_01 L_front_hand
L_front_hand03_01 L_front_hand
L_front_hand01_02 L_front_hand01_01
L_front_hand02_02 L_front_hand02_01
L_front_hand03_02 L_front_hand03_01
R_forearm R_humerus
R_front_hand R_forearm
R_weapon_bone R_forearm
R_front_hand01_01 R_front_hand
R_front_hand02_01 R_front_hand
R_front_hand03_01 R_front_hand
R_front_hand01_02 R_front_hand01_01
R_front_hand02_02 R_front_hand02_01
R_front_hand03_02 R_front_hand03_01
null_rope01_connect L_mid_tent01
Rope1_Seg01 null_rope01_connect
Rope1_Seg02 Rope1_Seg01
Rope1_Seg03 Rope1_Seg02
Rope1_Seg04 Rope1_Seg03
Rope1_Seg05 Rope1_Seg04
Rope1_Seg06 Rope1_Seg05
Rope1_Seg07 Rope1_Seg06
Rope1_Seg09 Rope1_Seg07
L_mid_hand01 Rope1_Seg09
L_mid_hand02 Rope1_Seg09
L_mid_hand03 Rope1_Seg09
null_rope02_connect R_mid_tent01
Rope2_Seg01 null_rope02_connect
Rope2_Seg02 Rope2_Seg01
Rope2_Seg03 Rope2_Seg02
Rope2_Seg04 Rope2_Seg03
Rope2_Seg05 Rope2_Seg04
Rope2_Seg06 Rope2_Seg05
Rope2_Seg07 Rope2_Seg06
Rope2_Seg09 Rope2_Seg07
R_mid_hand01 Rope2_Seg09
R_mid_hand02 Rope2_Seg09
R_mid_hand03 Rope2_Seg09
spine02 spine01
spine03 spine02
pelvis spine03
null_rope03_connect pelvis
null_rope04_connect pelvis
Rope3_Seg01 null_rope03_connect
Rope3_Seg02 Rope3_Seg01
Rope3_Seg03 Rope3_Seg02
Rope3_Seg04 Rope3_Seg03
Rope3_Seg05 Rope3_Seg04
Rope3_Seg06 Rope3_Seg05
Rope3_Seg07 Rope3_Seg06
Rope3_Seg08 Rope3_Seg07
Rope3_Seg09 Rope3_Seg08
R_rear_hand01 Rope3_Seg09
R_rear_hand02 Rope3_Seg09
R_rear_hand03 Rope3_Seg09
Rope4_Seg01 null_rope04_connect
Rope4_Seg02 Rope4_Seg01
Rope4_Seg03 Rope4_Seg02
Rope4_Seg04 Rope4_Seg03
Rope4_Seg05 Rope4_Seg04
Rope4_Seg06 Rope4_Seg05
Rope4_Seg07 Rope4_Seg06
Rope4_Seg08 Rope4_Seg07
Rope4_Seg09 Rope4_Seg08
L_rear_hand01 Rope4_Seg09
L_rear_hand02 Rope4_Seg09
L_rear_hand03 Rope4_Seg09
[BasePosition]
#SegmentName Tx, Ty, Tz, Rx, Ry, Rz, BoneLength
MASTER 0.000000 0.000000 0.000000 -90.000000 0.000000 0.000000 10.000000 
root 0.000000 0.000000 0.000000 0.000000 0.000000 0.000000 10.000000 
chest 0.000000 0.000000 0.000000 0.000000 0.000000 0.000000 10.000000 
L_mid_tent01 0.000000 0.000000 0.000000 0.000000 0.000000 0.000000 10.000000 
R_mid_tent01 0.000000 0.000000 0.000000 0.000000 0.000000 0.000000 10.000000 
spine01 0.000000 0.000000 0.000000 0.000000 0.000000 0.000000 10.000000 
Bip01_Neck 0.000000 0.000000 0.000000 0.000000 0.000000 0.000000 10.000000 
L_humerus 0.000000 0.000000 0.000000 0.000000 0.000000 0.000000 10.000000 
R_humerus 0.000000 0.000000 0.000000 0.000000 0.000000 0.000000 10.000000 
weapon_bone 0.000000 0.000000 0.000000 0.000000 0.000000 0.000000 10.000000 
Bip01_Head 0.000000 0.000000 0.000000 0.000000 0.000000 0.000000 10.000000 
eye_left_bone 0.000000 0.000000 0.000000 0.000000 0.000000 0.000000 10.000000 
eye_right_bone 0.000000 0.000000 0.000000 0.000000 0.000000 0.000000 10.000000 
L_forearm 0.000000 0.000000 0.000000 0.000000 0.000000 0.000000 10.000000 
L_front_hand 0.000000 0.000000 0.000000 0.000000 0.000000 0.000000 10.000000 
L_weapon_bone 0.000000 0.000000 0.000000 0.000000 0.000000 0.000000 10.000000 
L_front_hand01_01 0.000000 0.000000 0.000000 0.000000 0.000000 0.000000 10.000000 
L_front_hand02_01 0.000000 0.000000 0.000000 0.000000 0.000000 0.000000 10.000000 
L_front_hand03_01 0.000000 0.000000 0.000000 0.000000 0.000000 0.000000 10.000000 
L_front_hand01_02 0.000000 0.000000 0.000000 0.000000 0.000000 0.000000 10.000000 
L_front_hand02_02 0.000000 0.000000 0.000000 0.000000 0.000000 0.000000 10.000000 
L_front_hand03_02 0.000000 0.000000 0.000000 0.000000 0.000000 0.000000 10.000000 
R_forearm 0.000000 0.000000 0.000000 0.000000 0.000000 0.000000 10.000000 
R_front_hand 0.000000 0.000000 0.000000 0.000000 0.000000 0.000000 10.000000 
R_weapon_bone 0.000000 0.000000 0.000000 0.000000 0.000000 0.000000 10.000000 
R_front_hand01_01 0.000000 0.000000 0.000000 0.000000 0.000000 0.000000 10.000000 
R_front_hand02_01 0.000000 0.000000 0.000000 0.000000 0.000000 0.000000 10.000000 
R_front_hand03_01 0.000000 0.000000 0.000000 0.000000 0.000000 0.000000 10.000000 
R_front_hand01_02 0.000000 0.000000 0.000000 0.000000 0.000000 0.000000 10.000000 
R_front_hand02_02 0.000000 0.000000 0.000000 0.000000 0.000000 0.000000 10.000000 
R_front_hand03_02 0.000000 0.000000 0.000000 0.000000 0.000000 0.000000 10.000000 
null_rope01_connect 0.000000 0.000000 0.000000 0.000000 0.000000 0.000000 10.000000 
Rope1_Seg01 0.000000 0.000000 0.000000 0.000000 0.000000 0.000000 10.000000 
Rope1_Seg02 0.000000 0.000000 0.000000 0.000000 0.000000 0.000000 10.000000 
Rope1_Seg03 0.000000 0.000000 0.000000 0.000000 0.000000 0.000000 10.000000 
Rope1_Seg04 0.000000 0.000000 0.000000 0.000000 0.000000 0.000000 10.000000 
Rope1_Seg05 0.000000 0.000000 0.000000 0.000000 0.000000 0.000000 10.000000 
Rope1_Seg06 0.000000 0.000000 0.000000 0.000000 0.000000 0.000000 10.000000 
Rope1_Seg07 0.000000 0.000000 0.000000 0.000000 0.000000 0.000000 10.000000 
Rope1_Seg09 0.000000 0.000000 0.000000 0.000000 0.000000 0.000000 10.000000 
L_mid_hand01 0.000000 0.000000 0.000000 0.000000 0.000000 0.000000 10.000000 
L_mid_hand02 0.000000 0.000000 0.000000 0.000000 0.000000 0.000000 10.000000 
L_mid_hand03 0.000000 0.000000 0.000000 0.000000 0.000000 0.000000 10.000000 
null_rope02_connect 0.000000 0.000000 0.000000 0.000000 0.000000 0.000000 10.000000 
Rope2_Seg01 0.000000 0.000000 0.000000 0.000000 0.000000 0.000000 10.000000 
Rope2_Seg02 0.000000 0.000000 0.000000 0.000000 0.000000 0.000000 10.000000 
Rope2_Seg03 0.000000 0.000000 0.000000 0.000000 0.000000 0.000000 10.000000 
Rope2_Seg04 0.000000 0.000000 0.000000 0.000000 0.000000 0.000000 10.000000 
Rope2_Seg05 0.000000 0.000000 0.000000 0.000000 0.000000 0.000000 10.000000 
Rope2_Seg06 0.000000 0.000000 0.000000 0.000000 0.000000 0.000000 10.000000 
Rope2_Seg07 0.000000 0.000000 0.000000 0.000000 0.000000 0.000000 10.000000 
Rope2_Seg09 0.000000 0.000000 0.000000 0.000000 0.000000 0.000000 10.000000 
R_mid_hand01 0.000000 0.000000 0.000000 0.000000 0.000000 0.000000 10.000000 
R_mid_hand02 0.000000 0.000000 0.000000 0.000000 0.000000 0.000000 10.000000 
R_mid_hand03 0.000000 0.000000 0.000000 0.000000 0.000000 0.000000 10.000000 
spine02 0.000000 0.000000 0.000000 0.000000 0.000000 0.000000 10.000000 
spine03 0.000000 0.000000 0.000000 0.000000 0.000000 0.000000 10.000000 
pelvis 0.000000 0.000000 0.000000 0.000000 0.000000 0.000000 10.000000 
null_rope03_connect 0.000000 0.000000 0.000000 0.000000 0.000000 0.000000 10.000000 
null_rope04_connect 0.000000 0.000000 0.000000 0.000000 0.000000 0.000000 10.000000 
Rope3_Seg01 0.000000 0.000000 0.000000 0.000000 0.000000 0.000000 10.000000 
Rope3_Seg02 0.000000 0.000000 0.000000 0.000000 0.000000 0.000000 10.000000 
Rope3_Seg03 0.000000 0.000000 0.000000 0.000000 0.000000 0.000000 10.000000 
Rope3_Seg04 0.000000 0.000000 0.000000 0.000000 0.000000 0.000000 10.000000 
Rope3_Seg05 0.000000 0.000000 0.000000 0.000000 0.000000 0.000000 10.000000 
Rope3_Seg06 0.000000 0.000000 0.000000 0.000000 0.000000 0.000000 10.000000 
Rope3_Seg07 0.000000 0.000000 0.000000 0.000000 0.000000 0.000000 10.000000 
Rope3_Seg08 0.000000 0.000000 0.000000 0.000000 0.000000 0.000000 10.000000 
Rope3_Seg09 0.000000 0.000000 0.000000 0.000000 0.000000 0.000000 10.000000 
R_rear_hand01 0.000000 0.000000 0.000000 0.000000 0.000000 0.000000 10.000000 
R_rear_hand02 0.000000 0.000000 0.000000 0.000000 0.000000 0.000000 10.000000 
R_rear_hand03 0.000000 0.000000 0.000000 0.000000 0.000000 0.000000 10.000000 
Rope4_Seg01 0.000000 0.000000 0.000000 0.000000 0.000000 0.000000 10.000000 
Rope4_Seg02 0.000000 0.000000 0.000000 0.000000 0.000000 0.000000 10.000000 
Rope4_Seg03 0.000000 0.000000 0.000000 0.000000 0.000000 0.000000 10.000000 
Rope4_Seg04 0.000000 0.000000 0.000000 0.000000 0.000000 0.000000 10.000000 
Rope4_Seg05 0.000000 0.000000 0.000000 0.000000 0.000000 0.000000 10.000000 
Rope4_Seg06 0.000000 0.000000 0.000000 0.000000 0.000000 0.000000 10.000000 
Rope4_Seg07 0.000000 0.000000 0.000000 0.000000 0.000000 0.000000 10.000000 
Rope4_Seg08 0.000000 0.000000 0.000000 0.000000 0.000000 0.000000 10.000000 
Rope4_Seg09 0.000000 0.000000 0.000000 0.000000 0.000000 0.000000 10.000000 
L_rear_hand01 0.000000 0.000000 0.000000 0.000000 0.000000 0.000000 10.000000 
L_rear_hand02 0.000000 0.000000 0.000000 0.000000 0.000000 0.000000 10.000000 
L_rear_hand03 0.000000 0.000000 0.000000 0.000000 0.000000 0.000000 10.000000 
#Beginning of Data. Separated by tabs
#Fr	Tx	Ty	Tz	Rx	Ry	Rz	SF
[MASTER]
22 -124.739655 3667.296387 741.431763 0.001660 0.001660 0.001660 3743.573730
23 -122.956352 3736.185303 598.167053 0.001660 0.001660 0.001660 3785.763184
[root]
22 -5.410654 371.458557 1084.771240 -96.530594 -31.930212 -87.169838 1146.620850
23 -0.132685 421.551483 1100.626953 -96.338547 -35.493065 -87.005661 1178.594604
[chest]
22 -84.512650 -34.090519 0.000000 -6.932533 -15.436330 145.686325 91.129311
23 -84.512650 -34.090519 0.000000 -8.672585 -21.010422 147.267944 91.129311
[L_mid_tent01]
22 27.298859 22.179039 -249.918701 -0.293774 18.192976 80.669502 252.381653
23 27.298847 22.179035 -249.918701 -0.302088 18.416258 80.336922 252.381653
[R_mid_tent01]
22 23.228794 24.509907 226.238495 132.265839 -39.015476 67.289635 228.744751
23 23.228794 24.509907 226.238495 129.757095 -40.395267 67.505577 228.744751
[spine01]
22 -0.361383 -0.195265 0.000000 -0.000001 -0.000007 22.052340 0.410763
23 -0.361383 -0.195265 0.000000 -0.000001 -0.000007 22.052340 0.410763
[Bip01_Neck]
22 165.484543 71.581718 0.000119 176.643677 -1.657967 43.431911 180.302734
23 165.484543 71.581718 0.000119 176.643677 -1.657967 43.431911 180.302734
[L_humerus]
22 -13.983130 -135.272980 -120.471481 171.391342 19.015070 -92.693840 181.680161
23 -13.983130 -135.272980 -120.471481 171.797592 12.269344 -91.536728 181.680161
[R_humerus]
22 -13.983309 -135.273102 125.287651 -176.707550 -6.015029 -86.234161 184.909012
23 -13.983309 -135.273102 125.287651 -176.841080 -2.401783 -85.892006 184.909012
[weapon_bone]
22 235.964890 -300.705902 0.000000 0.000000 -89.951546 -128.212341 382.234833
23 235.964890 -300.705902 0.000000 0.000000 -89.951546 -128.212341 382.234833
[Bip01_Head]
22 213.371582 185.864548 9.075049 4.962490 2.797846 -43.898743 283.117310
23 213.380692 185.845947 9.412794 4.962490 2.797846 -43.898743 283.122986
[eye_left_bone]
22 -24.626970 125.451866 -64.772606 0.000000 -90.000000 -99.840431 143.318359
23 -24.626970 125.451866 -64.772606 0.000000 -90.000000 -99.840431 143.318359
[eye_right_bone]
22 -24.626970 125.451866 64.327362 0.000000 -89.980217 80.156380 143.117676
23 -24.626970 125.451866 64.327362 0.000000 -89.965736 80.156380 143.117676
[L_forearm]
22 322.776093 0.000000 -0.000119 0.000388 -0.002315 -109.007423 322.776093
23 322.776093 0.000000 -0.000119 0.000382 -0.002316 -108.727753 322.776093
[L_front_hand]
22 241.149185 -0.042021 -3.300071 -115.936928 -1.837356 -27.421503 241.171753
23 241.149185 -0.042021 -3.300071 -142.964096 -1.836860 -27.421392 241.171753
[L_weapon_bone]
22 156.183838 0.000000 0.000000 0.000014 0.000007 0.000001 156.183838
23 156.183838 0.000000 0.000000 0.000014 0.000007 0.000001 156.183838
[L_front_hand01_01]
22 86.095154 20.947098 -0.655860 -0.365735 -0.477812 75.179466 88.609184
23 86.095154 20.947098 -0.655860 -0.366594 -0.477154 75.385574 88.609184
[L_front_hand02_01]
22 86.935165 -11.437475 24.513514 154.083481 -59.794338 -61.001266 91.046425
23 86.935165 -11.437475 24.513514 154.399796 -59.883835 -61.369587 91.046425
[L_front_hand03_01]
22 86.637497 -14.123976 -20.424902 -153.626984 58.028236 -62.364826 90.126129
23 86.637497 -14.123976 -20.424902 -153.913849 58.118122 -62.702866 90.126129
[L_front_hand01_02]
22 71.020905 -0.000179 0.000030 0.000254 -0.002333 -102.442802 71.020905
23 71.020905 -0.000179 0.000030 0.000245 -0.002334 -101.962189 71.020905
[L_front_hand02_02]
22 71.020927 -0.000119 0.000060 0.000254 -0.002333 -102.442802 71.020927
23 71.020927 -0.000119 0.000060 0.000245 -0.002334 -101.962189 71.020927
[L_front_hand03_02]
22 71.020905 -0.000060 0.000060 0.000254 -0.002333 -102.442802 71.020905
23 71.020905 -0.000060 0.000060 0.000245 -0.002334 -101.962189 71.020905
[R_forearm]
22 322.776428 -0.000060 0.000030 0.206125 0.062187 -108.026146 322.776428
23 322.776428 -0.000060 0.000030 0.206270 0.061703 -107.756981 322.776428
[R_front_hand]
22 238.847015 -0.006795 2.210259 58.427925 -10.645446 -26.313440 238.857239
23 238.847015 -0.006795 2.210259 96.706978 -10.645882 -26.314304 238.857239
[R_weapon_bone]
22 155.664093 0.002503 -0.000030 0.003487 0.001180 -90.988930 155.664078
23 155.664093 0.002503 -0.000030 0.003487 0.001180 -90.988930 155.664078
[R_front_hand01_01]
22 87.624611 14.231146 22.918642 -151.324280 -58.950283 57.901733 91.683487
23 87.624611 14.231146 22.918642 -148.772781 -58.049347 54.911018 91.683487
[R_front_hand02_01]
22 89.356956 14.367283 -19.491137 151.491165 57.310089 60.072716 92.579636
23 89.356956 14.367283 -19.491137 149.093567 56.416065 57.211163 92.579636
[R_front_hand03_01]
22 87.286232 -22.307278 -0.143439 0.146114 -0.432116 -73.578300 90.091743
23 87.286232 -22.307278 -0.143439 0.132384 -0.433256 -71.773155 90.091743
[R_front_hand01_02]
22 71.020905 0.000060 0.000119 0.002333 -0.000259 102.681450 71.020905
23 71.020905 0.000060 0.000119 0.002333 -0.000257 102.569511 71.020905
[R_front_hand02_02]
22 71.020844 -0.000030 -0.000119 0.002333 -0.000259 102.681450 71.020836
23 71.020844 -0.000030 -0.000119 0.002333 -0.000257 102.569511 71.020836
[R_front_hand03_02]
22 71.020905 0.000000 0.000030 0.002333 -0.000259 102.681450 71.020905
23 71.020905 0.000000 0.000030 0.002333 -0.000257 102.569511 71.020905
[null_rope01_connect]
22 328.732483 0.000000 -0.000238 -147.015808 -66.972397 -171.126099 328.732483
23 328.732483 0.000000 -0.000238 -143.205887 -67.202263 -171.047241 328.732483
[Rope1_Seg01]
22 0.000004 -0.000567 0.000068 -31.894789 -32.064342 175.473648 0.000571
23 0.000002 -0.000592 0.000071 -27.755945 -26.357477 173.843323 0.000596
[Rope1_Seg02]
22 139.999863 -0.000179 0.000000 3.636275 8.389618 0.055106 139.999863
23 139.999863 -0.000179 0.000000 6.175957 10.176161 4.520876 139.999863
[Rope1_Seg03]
22 139.999924 0.000060 -0.000060 4.229021 15.749175 -0.922024 139.999924
23 139.999924 0.000060 -0.000060 8.449185 21.494188 5.576077 139.999924
[Rope1_Seg04]
22 139.999924 -0.000060 -0.000119 -0.460431 29.610540 -6.471646 139.999924
23 139.999924 -0.000060 -0.000119 2.537986 27.709311 1.071034 139.999924
[Rope1_Seg05]
22 139.999832 0.000119 -0.000060 -6.544605 25.517826 -3.157856 139.999832
23 139.999832 0.000119 -0.000060 10.489891 42.037743 39.703087 139.999832
[Rope1_Seg06]
22 139.999954 0.000119 -0.000060 -26.023924 45.143055 12.736959 139.999954
23 139.999954 0.000119 -0.000060 4.634169 30.213999 32.964832 139.999954
[Rope1_Seg07]
22 139.999985 0.000060 0.000000 -18.711239 24.024954 23.495644 139.999985
23 139.999985 0.000060 0.000000 -0.262517 6.827656 6.628739 139.999985
[Rope1_Seg09]
22 121.602913 0.000119 -0.000089 -89.793175 -1.359789 0.847147 121.602913
23 121.602913 0.000119 -0.000089 -89.793175 -1.359789 0.847147 121.602913
[L_mid_hand01]
22 103.859421 1.038730 8.195221 127.696274 -66.076538 -35.766609 104.187431
23 103.859421 1.038730 8.195221 129.753723 -67.188766 -38.008968 104.187431
[L_mid_hand02]
22 105.572853 -4.139662 -10.864139 -167.140015 43.006081 -70.902893 106.211075
23 105.572853 -4.139662 -10.864139 -168.447937 43.306499 -72.811859 106.211075
[L_mid_hand03]
22 104.641464 17.579376 -3.913581 -6.629650 17.597923 72.871559 106.179977
23 104.641464 17.579376 -3.913581 -6.178542 17.755547 74.357048 106.179977
[null_rope02_connect]
22 328.732849 0.000179 -0.000119 -61.894531 29.587799 48.494953 328.732849
23 328.732849 0.000179 -0.000119 -57.650951 27.072142 47.511875 328.732849
[Rope2_Seg01]
22 0.000055 0.000084 0.000000 95.855698 -26.554718 50.835754 0.000101
23 0.000056 0.000081 0.000000 94.994469 -24.051212 52.515133 0.000099
[Rope2_Seg02]
22 139.999741 -0.000060 -0.000119 -0.479254 -6.516274 -1.298681 139.999756
23 139.999741 -0.000060 -0.000119 -0.270985 -4.507457 -5.280603 139.999756
[Rope2_Seg03]
22 140.000107 0.000030 0.000000 -2.544292 -15.575276 -3.330710 140.000107
23 140.000107 0.000030 0.000000 -0.789808 -8.933918 -10.757481 140.000107
[Rope2_Seg04]
22 139.999802 0.000000 -0.000060 -25.330181 -44.350803 -15.056916 139.999802
23 139.999802 0.000000 -0.000060 -2.239661 -19.277267 -26.191912 139.999802
[Rope2_Seg05]
22 139.999985 -0.000060 0.000119 -45.805313 -29.598505 -35.579002 139.999985
23 139.999985 -0.000060 0.000119 -5.267002 -19.829369 -35.300198 139.999985
[Rope2_Seg06]
22 139.999893 -0.000030 -0.000119 -16.437550 5.246802 -28.055658 139.999893
23 139.999893 -0.000030 -0.000119 -5.313991 -10.954660 -31.247377 139.999893
[Rope2_Seg07]
22 139.999893 0.000060 -0.000060 -2.773222 4.319513 -8.799675 139.999893
23 139.999893 0.000060 -0.000060 -2.076471 -2.805826 -13.322524 139.999893
[Rope2_Seg09]
22 121.338966 0.000089 -0.000060 33.793236 -1.359788 -0.847141 121.338966
23 121.338966 0.000089 -0.000060 33.793236 -1.359788 -0.847141 121.338966
[R_mid_hand01]
22 104.680779 11.144459 -10.335981 -26.991898 40.639954 54.704464 105.778534
23 104.680779 11.144459 -10.335981 -23.980095 42.262276 59.248196 105.778534
[R_mid_hand02]
22 104.070427 2.443552 8.231699 62.577366 -57.416584 24.150801 104.424065
23 104.070427 2.443552 8.231699 59.529949 -60.717201 27.702354 104.424065
[R_mid_hand03]
22 106.028137 -11.221827 -5.996406 -173.762711 14.561014 -63.787167 106.788818
23 106.028137 -11.221827 -5.996406 -174.753189 14.937831 -67.669342 106.788818
[spine02]
22 129.756927 0.001550 0.000119 0.526507 -4.025401 -15.339367 129.756927
23 129.756927 0.001550 0.000119 0.521592 -4.026049 -15.269289 129.756927
[spine03]
22 78.613968 0.081635 -4.899012 1.998393 3.782770 17.987198 78.766502
23 78.613968 0.081635 -4.899013 1.994126 3.784117 17.931971 78.766502
[pelvis]
22 169.435242 0.051022 0.000000 -0.070154 -0.177806 17.153118 169.435257
23 169.435242 0.051022 0.000000 -0.069994 -0.177869 17.050604 169.435257
[null_rope03_connect]
22 -1.257226 -2.466202 137.391083 -179.015839 -85.636681 -100.777588 137.418976
23 -1.257226 -2.466202 137.391083 -179.078064 -85.979118 -97.095039 137.418976
[null_rope04_connect]
22 -1.259640 -2.480268 -137.844437 -179.015839 -85.636681 -100.777588 137.872513
23 -1.259640 -2.480268 -137.844437 -179.078064 -85.979118 -97.095039 137.872513
[Rope3_Seg01]
22 0.000042 -0.000294 0.000000 34.055695 -77.167343 -82.395424 0.000297
23 0.000041 -0.000306 0.000000 -56.217484 -86.223068 11.680696 0.000309
[Rope3_Seg02]
22 139.999924 -0.000119 0.000060 -0.343016 11.257303 6.850034 139.999924
23 139.999924 -0.000119 0.000060 -0.624678 14.411554 3.881673 139.999924
[Rope3_Seg03]
22 139.999924 -0.000119 0.000119 5.138911 23.111012 16.705000 139.999924
23 139.999924 -0.000119 0.000119 10.211943 34.919739 13.584577 139.999924
[Rope3_Seg04]
22 139.999924 0.000119 0.000000 13.477057 24.178905 20.371195 139.999924
23 139.999924 0.000119 0.000000 25.949364 33.593014 10.301549 139.999924
[Rope3_Seg05]
22 139.999924 -0.000238 0.000060 40.987350 28.526978 2.748060 139.999924
23 139.999924 -0.000238 0.000060 26.035282 24.245903 -17.144543 139.999924
[Rope3_Seg06]
22 139.999893 -0.000119 -0.000060 30.105196 38.055851 -48.408508 139.999893
23 139.999893 -0.000119 -0.000060 11.668258 13.168389 -35.709435 139.999893
[Rope3_Seg07]
22 139.999771 0.000060 -0.000119 3.157431 0.828402 -19.253420 139.999771
23 139.999771 0.000060 -0.000119 1.902960 2.744129 -15.362014 139.999771
[Rope3_Seg08]
22 139.999985 -0.000060 0.000000 0.754080 -0.080265 -6.362423 139.999985
23 139.999985 -0.000060 0.000000 0.572946 0.921329 -6.575409 139.999985
[Rope3_Seg09]
22 90.185997 -0.000179 -0.000060 89.793228 -1.359877 -0.847183 90.185997
23 90.185997 -0.000179 -0.000060 89.793228 -1.359877 -0.847183 90.185997
[R_rear_hand01]
22 103.366196 -6.073594 -10.757982 -172.436630 23.546103 -61.016514 104.101845
23 103.366196 -6.073594 -10.757982 -174.043228 23.976637 -65.002998 104.101845
[R_rear_hand02]
22 100.509819 12.039542 -7.992327 -20.870390 33.419476 58.329945 101.543350
23 100.509819 12.039542 -7.992327 -18.533085 34.659092 62.503902 101.543350
[R_rear_hand03]
22 101.539970 5.215704 5.435467 78.426208 -60.383141 13.958279 101.819031
23 101.539970 5.215704 5.435467 76.952385 -63.971771 15.629117 101.819031
[Rope4_Seg01]
22 -0.000015 -0.000042 -0.000153 -25.201735 -73.692116 168.101578 0.000159
23 -0.000015 -0.000041 -0.000153 -16.051966 -70.243439 158.591553 0.000159
[Rope4_Seg02]
22 139.999985 0.000060 0.000119 -0.006285 4.042613 7.633128 139.999985
23 139.999985 0.000060 0.000119 -0.377800 4.585876 8.855309 139.999985
[Rope4_Seg03]
22 139.999924 0.000000 -0.000238 -1.043965 5.903087 11.342410 139.999924
23 139.999924 0.000000 -0.000238 -2.076106 6.495421 13.246548 139.999924
[Rope4_Seg04]
22 139.999985 0.000000 0.000119 -7.029099 3.115632 21.007408 139.999985
23 139.999985 0.000000 0.000119 -9.857151 2.944103 22.060192 139.999985
[Rope4_Seg05]
22 139.999802 -0.000060 -0.000119 -7.817837 5.572484 16.255602 139.999802
23 139.999802 -0.000060 -0.000119 -7.417244 7.786030 14.105385 139.999802
[Rope4_Seg06]
22 139.999924 0.000000 0.000060 14.803028 28.636723 6.459632 139.999924
23 139.999924 0.000000 0.000060 8.529943 25.854296 10.242719 139.999924
[Rope4_Seg07]
22 139.999802 0.000000 0.000000 90.993324 27.123016 -1.801492 139.999802
23 139.999802 0.000000 0.000000 156.926819 20.369398 7.491467 139.999802
[Rope4_Seg08]
22 139.999924 0.000000 0.000119 30.037134 0.471242 -11.206925 139.999924
23 139.999924 0.000000 0.000119 15.483476 -7.183132 -7.986621 139.999924
[Rope4_Seg09]
22 90.185791 0.000060 0.000060 -135.617828 2.228885 0.850567 90.185791
23 90.185791 0.000060 0.000060 -135.617828 2.228885 0.850567 90.185791
[L_rear_hand01]
22 101.696655 -8.392275 -7.654577 -14.875789 -36.204914 111.195381 102.329041
23 101.696655 -8.392275 -7.654577 -13.808599 -36.569183 109.397408 102.329041
[L_rear_hand02]
22 102.726799 -1.568258 5.773216 73.822197 69.166573 160.967667 102.900848
23 102.726799 -1.568258 5.773216 72.647575 70.590675 159.713425 102.900848
[L_rear_hand03]
22 104.552910 9.721220 -10.420293 -176.448364 -24.423323 -109.138077 105.519653
23 104.552910 9.721220 -10.420293 -177.121979 -24.509386 -107.501076 105.519653
